<?xml version="1.0" standalone="no"?>
<!DOCTYPE svg PUBLIC "-//W3C//DTD SVG 20010904//EN"
 "http://www.w3.org/TR/2001/REC-SVG-20010904/DTD/svg10.dtd">
<svg version="1.0" xmlns="http://www.w3.org/2000/svg"
 width="150.000000pt" height="150.000000pt" viewBox="0 0 150.000000 150.000000"
 preserveAspectRatio="xMidYMid meet">
<metadata>
Created by potrace 1.11, written by Peter Selinger 2001-2013
</metadata>
<g transform="translate(0.000000,150.000000) scale(0.100000,-0.100000)"
fill="#000000" stroke="none">
<path d="M608 1373 c-55 -34 -66 -135 -19 -169 18 -14 17 -15 -59 -35 -146
-37 -304 -145 -410 -279 -49 -63 -120 -203 -120 -237 0 -29 42 -73 69 -73 18
0 18 -3 9 -37 -5 -20 -10 -73 -10 -118 -1 -66 3 -91 24 -136 40 -88 120 -155
207 -174 44 -9 858 -9 902 0 86 19 167 86 207 174 20 44 25 69 24 130 0 42 -5
95 -10 119 -9 38 -8 42 10 42 26 0 68 44 68 72 0 33 -61 157 -108 220 -79 106
-156 173 -263 232 -55 30 -161 73 -179 73 -3 0 -15 3 -28 7 -22 7 -22 9 -7 26
8 9 20 31 24 48 12 39 -18 104 -55 121 -34 15 -86 14 -109 -3 -17 -12 -23 -12
-47 0 -36 19 -87 17 -120 -3z"/>
</g>
</svg>
