<svg height="512" viewBox="0 0 60 60" width="512" xmlns="http://www.w3.org/2000/svg"><g id="Page-1" fill="none" fill-rule="evenodd"><g id="032---Cheese-and-Wine" transform="translate(-1)"><g fill-rule="nonzero"><path id="Shape" d="m40 25c.0029791 1.1355425-.3855014 2.2374144-1.1 3.12-1.1066344.2504266-2.0945155.8713805-2.8 1.76h-.01c-.357728.0804837-.7233307.1207336-1.09.12-2.7614237 0-5-2.2385763-5-5s2.2385763-5 5-5 5 2.2385763 5 5z" fill="#673ab7"/><path id="Shape" d="m35 20c-.5101742.0069635-1.0161845.0929853-1.5.255 1.5732419.4868346 2.803078 1.7215093 3.2837315 3.2966506.4806534 1.5751413.1496748 3.2860977-.8837315 4.5683494-1.0125075.2330356-1.9259944.7788186-2.611 1.56.893043.3419835 1.8674166.4115816 2.8.2h.01c.7054845-.8886195 1.6933656-1.5095734 2.8-1.76.714858-.8824505 1.1036963-1.9843356 1.101-3.12 0-2.7614237-2.2385763-5-5-5z" fill="#4527a0"/><path id="Shape" d="m50 25c.0029791 1.1355425-.3855014 2.2374144-1.1 3.12-1.1066344.2504266-2.0945155.8713805-2.8 1.76h-.01c-.7178578.1600136-1.4621422.1600136-2.18 0h-.01c-.7054845-.8886195-1.6933656-1.5095734-2.8-1.76-.7144986-.8825856-1.1029791-1.9844575-1.1-3.12 0-2.7614237 2.2385763-5 5-5s5 2.2385763 5 5z" fill="#673ab7"/><path id="Shape" d="m45 20c-.5101742.0069635-1.0161845.0929853-1.5.255 1.5732419.4868346 2.803078 1.7215093 3.2837315 3.2966506.4806534 1.5751413.1496748 3.2860977-.8837315 4.5683494-.9098243.2099317-1.7417965.6727163-2.4 1.335.1414706.1337815.2750301.2756884.4.425h.01c.7178578.1600136 1.4621422.1600136 2.18 0h.01c.7054845-.8886195 1.6933656-1.5095734 2.8-1.76.7144986-.8825856 1.1029791-1.9844575 1.1-3.12 0-2.7614237-2.2385763-5-5-5z" fill="#4527a0"/><path id="Shape" d="m60 25c0 2.7614237-2.2385763 5-5 5-.3666693.0007336-.732272-.0395163-1.09-.12h-.01c-.7054845-.8886195-1.6933656-1.5095734-2.8-1.76-.7144986-.8825856-1.1029791-1.9844575-1.1-3.12 0-2.7614237 2.2385763-5 5-5s5 2.2385763 5 5z" fill="#673ab7"/><path id="Shape" d="m55 20c-.5101742.0069635-1.0161845.0929853-1.5.255 2.0421649.6321127 3.4513307 2.4993036 3.4991772 4.6365248.0478465 2.1372213-1.2763467 4.0656047-3.2881772 4.7884752.061.068.132.128.189.2h.01c.357728.0804837.7233307.1207336 1.09.12 2.7614237 0 5-2.2385763 5-5s-2.2385763-5-5-5z" fill="#4527a0"/><path id="Shape" d="m45 33v2l-.27.69c-4.32 4.63-9.73 1.6-9.73-2.69-.0017728-1.1336474.3826741-2.2340826 1.09-3.12h.01c.9447133-1.1897242 2.3808137-1.8831629 3.9-1.8831629s2.9552867.6934387 3.9 1.8831629h.01c.7073259.8859174 1.0917728 1.9863526 1.09 3.12z" fill="#673ab7"/><path id="Shape" d="m43.91 29.88h-.01c-1.1939797-1.4931219-3.1340055-2.1760109-5-1.76-.138.031-.266.085-.4.127.9445498.2936428 1.7801271.8621835 2.4 1.633h.01c.7073259.8859174 1.0917728 1.9863526 1.09 3.12v2l-.27.69c-.8602944.9692779-1.9656258 1.6891249-3.2 2.084 1.848.574 4.142.117 6.2-2.084l.27-.69v-2c.0017728-1.1336474-.3826741-2.2340826-1.09-3.12z" fill="#4527a0"/><path id="Shape" d="m57.55 2.39c-.31.36-.6.72-.89 1.09-.4679631.55084859-.8582582 1.16320815-1.16 1.82-.017256.02451807-.0307391.05148437-.04.08-.089504.21674598-.1597746.44094282-.21.67-.23 1.09-.05 2.25-.52 3.3-.01.02-.01.04-.02.06-.831128 1.4586769-2.1215122 2.6013878-3.67 3.25-1.35.67-3.29 1.46-4.7.54-.550076-.3876945-.9381029-.964395-1.09-1.62-.3222366-1.67146234-.023561-3.40306949.84-4.87 1.1485905-2.11121723 3.0579297-3.70590883 5.34-4.46.07-.02.14-.04.22-.06 1.6364559-.39831236 3.3158182-.59311839 5-.58.19 0 .37-.01.56-.02s.56-.04.65.18-.19.47-.31.62z" fill="#60a917"/><path id="Shape" d="m57.86 1.77c-.09-.22-.46-.19-.65-.18s-.37.02-.56.02c-.614.018-1.235.047-1.855.089.0266203.01860324.0488133.04284487.065.071.08.21-.19.47-.31.62-.31.36-.6.72-.89 1.09-.4679631.55084859-.8582582 1.16320815-1.16 1.82-.017256.02451807-.0307391.05148437-.04.08-.089504.21674598-.1597746.44094282-.21.67-.23 1.09-.05 2.25-.52 3.3-.01.02-.01.04-.02.06-.831128 1.4586769-2.1215122 2.6013878-3.67 3.25-.4853422.2450307-.9864488.4574999-1.5.636 1.39.736 3.213 0 4.5-.636 1.5484878-.6486122 2.838872-1.7913231 3.67-3.25.01-.02.01-.04.02-.06.47-1.05.29-2.21.52-3.3.0502254-.22905718.120496-.45325402.21-.67.0092609-.02851563.022744-.05548193.04-.08.3017418-.65679185.6920369-1.26915141 1.16-1.82.29-.37.58-.73.89-1.09.12-.15.39-.41.31-.62z" fill="#549414"/><path id="Shape" d="m41.19 12.59c-.20058.459312-.5588208.8317406-1.01 1.05-1.1609905.4920521-2.4604996.5488613-3.66.16-1.7090728-.5089522-3.1627822-1.6447743-4.07-3.18l-.09-.15c-.5467255-1.12506726-.9498847-2.31438692-1.2-3.54-.03-.13-.07-.27-.11-.4s-.11-.4.03-.5.37.06.5.13c.31.16.62.32.94.47.471583.25538642.9764306.44386286 1.5.56.02 0 .04.01.06.01.1715188.03197498.345531.04870692.52.05.8152426-.1412127 1.6440222-.18818807 2.47-.14.0172822-.0015564.0346458.00191633.05.01 1.1910145.37138752 2.2250748 1.12758808 2.94 2.15.7.87 1.58 2.15 1.13 3.32z" fill="#60a917"/><path id="Shape" d="m31.16 6.93c.023.1.048.19.071.285.1220779.01991303.2453552.031606.369.035.676-.008 1.339-.2 2.011-.181-.3752039-.11584654-.7401273-.26268557-1.091-.439-.32-.15-.63-.31-.94-.47-.13-.07-.36-.23-.5-.13s-.06.36-.03.5.08.27.11.4z" fill="#549414"/><path id="Shape" d="m40.06 9.27c-.7149252-1.02241192-1.7489855-1.77861248-2.94-2.15-.0153542-.00808367-.0327178-.0115564-.05-.01-.8259778-.04818807-1.6547574-.0012127-2.47.14-.019 0-.035 0-.054 0 1.0015152.43978174 1.8688582 1.13669217 2.514 2.02.7.87 1.58 2.15 1.13 3.32-.20058.459312-.5588208.8317406-1.01 1.05-.1613687.0792159-.3285151.1460744-.5.2 1.154176.3445197 2.3925825.2737536 3.5-.2.4511792-.2182594.80942-.590688 1.01-1.05.45-1.17-.43-2.45-1.13-3.32z" fill="#549414"/><path id="Shape" d="m16.94 40.31v11.9c.0101525.9996302.7499615 1.8414818 1.74 1.98 4.28.65 7.26 2.57 7.26 3.81 0 .5522847-.4477153 1-1 1h-21c-.55228475 0-1-.4477153-1-1 0-1.24 2.99-3.16 7.27-3.81.9880227-.1394097 1.7244054-.9822061 1.73-1.98v-11.9c-.0258427-3.5865305-1.95179167-6.8903324-5.06-8.68-2.31969638-1.3702323-3.99158223-3.6150273-4.64-6.23-.27300632-1.1942112-.31711863-2.4293558-.13-3.64l1.01-7.41c2.33.84 3.03 2.9 6.48 2.9 4.34 0 4.34-3.25 8.67-3.25 4.06 0 4.32 2.84 7.88 3.21h.01l.62 4.55c.1871186 1.2106442.1430063 2.4457888-.13 3.64-.6486269 2.6177298-2.3248976 4.8635721-4.65 6.23-3.1056872 1.7922011-5.0307106 5.094415-5.06 8.68z" fill="#ef314c"/><path id="Shape" d="m22 31.63c2.3251024-1.3664279 4.0013731-3.6122702 4.65-6.23.2730063-1.1942112.3171186-2.4293558.13-3.64l-.62-4.55h-.01c-3.56-.37-3.82-3.21-7.88-3.21-.5042546-.0030376-1.0073029.0496148-1.5.157 2.7.6 3.322 2.735 6.383 3.053h.01l.62 4.55c.1871186 1.2106442.1430063 2.4457888-.13 3.64-.6493446 2.6182479-2.32676 4.8641749-4.653 6.23-3.1056872 1.7922011-5.0307106 5.094415-5.06 8.68v11.9c.0101525.9996302.7499615 1.8414818 1.74 1.98 4.28.65 7.26 2.57 7.26 3.81 0 .5522847-.4477153 1-1 1h3c.5522847 0 1-.4477153 1-1 0-1.24-2.98-3.16-7.26-3.81-.9900385-.1385182-1.7298475-.9803698-1.74-1.98v-11.9c.0292894-3.585585 1.9543128-6.8877989 5.06-8.68z" fill="#bb193b"/><path id="Shape" d="m26.16 17.21h-.01c-3.56-.37-3.82-3.21-7.88-3.21-4.33 0-4.33 3.25-8.67 3.25-3.45 0-4.15-2.06-6.48-2.9l1.71-12.49c.06727941-.49456552.4908857-.86254674.99-.86h17.25c.4991143-.00254674.9227206.36543448.99.86z" fill="#02a9f4"/><path id="Shape" d="m24.06 1.86c-.0672794-.49456552-.4908857-.86254674-.99-.86l-3-.00001314c.4991143-.0025336.9227206.36544762.99.86001314l1.921 14.04c.9085024.7321174 2.0087302 1.1869291 3.169 1.31h.01z" fill="#0377bc"/><path id="Shape" d="m55 44c0 1.6568542-1.3431458 3-3 3s-3-1.3431458-3-3h-19v14c0 .5522847.4477153 1 1 1h28c.5522847 0 1-.4477153 1-1v-14zm-19 11c-1.1045695 0-2-.8954305-2-2s.8954305-2 2-2 2 .8954305 2 2c-.0032948 1.1032019-.8967981 1.9967052-2 2zm11 0c-1.6568542 0-3-1.3431458-3-3s1.3431458-3 3-3 3 1.3431458 3 3-1.3431458 3-3 3z" fill="#ffdc00"/><path id="Shape" d="m57 44v14c0 .5522847-.4477153 1-1 1h3c.5522847 0 1-.4477153 1-1v-14z" fill="#fec108"/><path id="Shape" d="m60 44h-5c0-1.1-1.34-2-3-2s-3 .9-3 2h-19l17.98-6.29h.01l1.79-.63c.1479185-.0499571.3042161-.0703438.46-.06.77.09 1.48.2 2.13.34 7.63 1.63 7.63 6.64 7.63 6.64z" fill="#ffeb3a"/><path id="Shape" d="m55 33c.0002655.1737733-.009752.3474101-.03.52-.0415363.4425417-.1459187.8769071-.31 1.29-.4299235 1.0989128-1.2434685 2.0048254-2.29 2.55-.65-.14-1.36-.25-2.13-.34-.1557839-.0103438-.3120815.0100429-.46.06l-1.79.63h-.01c-1.2254703-.4118767-2.3381887-1.103474-3.25-2.02l.27-.69v-2c-.0017728-1.1336474.3826741-2.2340826 1.09-3.12h.01c.9447133-1.1897242 2.3808137-1.8831629 3.9-1.8831629s2.9552867.6934387 3.9 1.8831629h.01c.7073259.8859174 1.0917728 1.9863526 1.09 3.12z" fill="#673ab7"/><path id="Shape" d="m47.24 37.02c-.1557839-.0103438-.3120815.0100429-.46.06l-.122.043c.4199518.2393363.8628312.4359855 1.322.587h.01l1.127-.4c-.582-.11-1.202-.21-1.877-.29z" fill="#4527a0"/><path id="Shape" d="m53.91 29.88h-.01c-1.1939797-1.4931219-3.1340055-2.1760109-5-1.76-.138.031-.266.085-.4.127.9445498.2936428 1.7801271.8621835 2.4 1.633h.01c.7073259.8859174 1.0917728 1.9863526 1.09 3.12.0002655.1737733-.009752.3474101-.03.52-.0415363.4425417-.1459187.8769071-.31 1.29-.3685022.9272925-1.0137752 1.7185201-1.848 2.266.1380501-.0446458.2831107-.0636257.428-.056.77.09 1.48.2 2.13.34 1.0465315-.5451746 1.8600765-1.4510872 2.29-2.55.1640813-.4130929.2684637-.8474583.31-1.29.020248-.1725899.0302655-.3462267.03-.52.0017728-1.1336474-.3826741-2.2340826-1.09-3.12z" fill="#4527a0"/><path id="Shape" d="m55 44c0 1.6568542-1.3431458 3-3 3s-3-1.3431458-3-3c0-1.1 1.34-2 3-2s3 .9 3 2z" fill="#ff9801"/><circle id="Oval" cx="36" cy="53" fill="#ff9801" r="2"/><circle id="Oval" cx="47" cy="52" fill="#ff9801" r="3"/></g><path id="Shape" d="m55 33c.0002655.1737733-.009752.3474101-.03.52" stroke="#000" stroke-linecap="round" stroke-linejoin="round" stroke-width="2"/><path id="Shape" d="m8.912 29.178c-.17794056-.0001617-.35261525-.0478003-.506-.138-1.62491479-.9577859-2.79834277-2.5266785-3.258-4.356-.17721064-.8298704-.19789853-1.6855352-.061-2.523.03964834-.3613375.27225362-.6727017.60750752-.8132064.33525389-.1405047.72034877-.0880183 1.00577266.1370816s.42621815.5873565.36771982.9461248c-.09908614.5861933-.09163351 1.1854522.022 1.769.32910533 1.3069651 1.16786892 2.4277174 2.329 3.112.38888017.2286851.57648708.6894335.4579631 1.1247228-.11852398.4352892-.51382602.7373186-.9649631.7372772z" fill="#f5f5f5" fill-rule="nonzero"/><path id="Shape" d="m55 19c-2.0123062.001472-3.889878 1.0116057-5 2.69-.9094303-1.3684734-2.3398881-2.3045234-3.958-2.59.1104737-1.5573099.3703346-3.1004012.776-4.608.3359077.0856861.6813384.128361 1.028.127 1.2771196-.0776206 2.5206006-.4405161 3.639-1.062 1.764284-.7314636 3.22276-2.0483297 4.13-3.729l.031-.07c.2925975-.74792557.4464442-1.54291291.454-2.346.0156914-.38822393.0587988-.77485364.129-1.157.0426386-.19269972.1035819-.38088726.182-.562.2730332-.57283253.6185278-1.10821473 1.028-1.593.287-.361.573-.718.911-1.116.4480181-.40079131.6177474-1.02796654.433-1.6-.232-.567-.754-.834-1.605-.8l-.56.023c-1.7679403-.01604328-3.5308474.19092274-5.247.616l-.24.071c-2.5327451.8317614-4.6523929 2.59908841-5.926 4.941-.9861231 1.68553328-1.3141574 3.67617787-.921 5.589.1436911.5547997.4056808 1.0719565.768 1.516-.132.431-.249.857-.35 1.272-.5770724-1.1426678-1.3997163-2.1435683-2.409-2.931-.1817594-1.1341989-.6869722-2.19184724-1.455-3.046-.8438564-1.2116242-2.0801858-2.09471664-3.5-2.5l-.06-.013c-.6175544-.10220573-1.2485886-.09068308-1.862.034-.2727272.04737367-.5483657.0761069-.825.086-.1291153.0028027-.2580847-.01029575-.384-.039-.4353001-.10420889-.8556461-.26314064-1.251-.473-.3-.15-.606-.3-.939-.478-.4430767-.32082961-1.0365419-.34061178-1.5-.05-.4893449.35801807-.6682092 1.00557313-.432 1.564l.1.4c.2705374 1.30513642.7049815 2.57083702 1.293 3.767l.1.172c1.0346226 1.7656894 2.7048756 3.0692667 4.669 3.644.6540538.1910592 1.3316198.2896816 2.013.293.8210571.0141743 1.6340471-.1639027 2.374-.52.381079-.1917568.72083-.4564229 1-.779 1.336033 1.4814511 2.1471255 3.3615833 2.308 5.35-1.6133359.2914635-3.0374468 1.2296715-3.942 2.597-1.5367073-2.3246916-4.4717301-3.2853441-7.0855653-2.3191526-2.6138352.9661914-4.2183815 3.6048735-3.8736045 6.3701563.344777 2.7652829 2.5481134 4.9291961 5.3191698 5.2239963-.5589288 1.5391381-.4638399 3.2399359.2631708 4.7071792.7270108 1.4672432 2.0226425 2.5731789 3.5858292 3.0608208.0969843.0310166.1981768.0468701.3.047.493761.0000955.9136821-.3602044.9886119-.8482469.0749297-.4880425-.2175639-.9577203-.6886119-1.1057531-1.2432392-.3894543-2.2197899-1.3586065-2.6186875-2.5988481-.3988976-1.2402415-.1704166-2.5969668.6126875-3.6381519.0281334-.0276661.0545178-.0570562.079-.088.5632726-.7083905 1.3519398-1.2027631 2.235-1.401.5811534-.1299877 1.1838466-.1299877 1.765 0 .8825892.1981084 1.6708785.6921125 2.234 1.4.0241815.0302649.0502323.0589877.078.086.5232042.6960412.8060731 1.543244.806 2.414v2c0 .5522847.4477153 1 1 1s1-.4477153 1-1v-2c-.0015877-.8691149.2791645-1.7152317.8-2.411.0281334-.0276661.0545178-.0570562.079-.088.5640351-.708966 1.3538504-1.2033946 2.238-1.401.5811534-.1299877 1.1838466-.1299877 1.765 0 .8825892.1981084 1.6708785.6921125 2.234 1.4.0241815.0302649.0502323.0589877.078.086.5232042.6960412.8060731 1.543244.806 2.414.0013196.494421-.0906205.9846555-.271 1.445-.1319749.332955-.0758075.7110666.1472522.9912822.2230596.2802156.5789468.4197417.933017.3657908.3540701-.053951.6522512-.2931398.7817308-.627073.2715428-.6929305.4102896-1.4307645.409-2.175-.0013974-.6940493-.1232038-1.3825938-.36-2.035 3.1678524-.3436518 5.5145425-3.103593 5.3443454-6.2854821-.1701972-3.1818892-2.7979099-5.6757528-5.9843454-5.6795179zm-15.269-6.256c-.934457.3860617-1.9776374.4180611-2.934.09-1.4670123-.4281439-2.7146296-1.4013355-3.487-2.72l-.064-.114c-.3752296-.73879204-.6654191-1.51777467-.865-2.322.4852883.23131414.9971066.40225609 1.524.509.2313039.03919771.4654025.05959773.7.061.3718002-.00899834.7424496-.04509404 1.109-.108.3882255-.08426308.7880452-.10117592 1.182-.05l.222-.975-.214.977.22-.975-.219.976c.968578.32153316 1.8036099.95439946 2.375 1.8.083.1.211.264.349.457-.8561751-.236486-1.7407752-.35425319-2.629-.35-.5522847 0-1 .4477153-1 1s.4477153 1 1 1c1.0105249-.0145052 2.0121871.1901942 2.936.6-.063683.054301-.1323167.102512-.205.144zm7.236-5.557c1.0226228-1.885207 2.7267792-3.30855678 4.764-3.979l.191-.057c1.3515125-.34193646 2.7399072-.51657731 4.134-.52l-.185.232c-.5192426.61898906-.9543477 1.30392659-1.294 2.037l-.04.1c-.1119497.27128627-.1993008.55208157-.261.839-.0910389.47559785-.1471885.95721464-.168 1.441-.0006629.56865706-.0994454 1.13293549-.292 1.668l.891.457-.908-.42c-.7295451 1.254397-1.8551643 2.2308717-3.2 2.776-.9454521.5681787-2.0356903.8492503-3.138.809.8217611-2.4697149 2.6003761-4.50627775 4.937-5.653.4993742-.22257052.7274312-.80493118.5119982-1.30742579-.2154329-.50249461-.7944852-.73882584-1.2999982-.53057421-2.4362407 1.11666239-4.383741 3.08051031-5.48 5.526-.0430938-1.19487906.2466853-2.37823006.837-3.418zm-11.349 21.746c-.2039839.0381017-.4105899.0605007-.618.067-2.209139 0-4-1.790861-4-4s1.790861-4 4-4 4 1.790861 4 4c-.0034558.814763-.2584013 1.6085864-.73 2.273-1.0161143.3071593-1.9316942.8802598-2.652 1.66zm10 0c-.4100345.0659154-.8279655.0659154-1.238 0-.7202429-.779112-1.6354158-1.3518287-2.651-1.659-.4714395-.6648104-.7260423-1.4590035-.729-2.274 0-2.209139 1.790861-4 4-4s4 1.790861 4 4c-.0034558.814763-.2584013 1.6085864-.73 2.273-1.0155842.3071713-1.9307571.879888-2.651 1.659zm9.382.067c-.2077411-.0064992-.4146795-.0288981-.619-.067-.7199351-.7797033-1.635185-1.3528133-2.651-1.66-.4715987-.6644136-.7265442-1.458237-.73-2.273 0-2.209139 1.790861-4 4-4s4 1.790861 4 4-1.790861 4-4 4z" fill="#000" fill-rule="nonzero"/><path id="Shape" d="m6.378 32.487c2.79574851 1.6209162 4.5310631 4.5945471 4.567 7.826v11.9c-.0069946.5055639-.385363.9287222-.887.992-3.988.604-8.113 2.565-8.113 4.795 0 1.1045695.8954305 2 2 2h21c1.1045695 0 2-.8954305 2-2 0-2.23-4.126-4.191-8.114-4.8-.5014564-.0633252-.8795046-.4866027-.886-.992v-11.9c.0359369-3.2314529 1.7712515-6.2050838 4.567-7.826 2.5511934-1.5055612 4.3927535-3.9705791 5.113-6.844.3033884-1.3197028.3512504-2.685295.141-4.023l-2.713-19.885c-.1378496-.98927084-.9821768-1.72661864-1.981-1.73h-17.255c-.99833061.00374118-1.84229376.74034506-1.981 1.729l-2.712 19.891c-.2107412 1.3373412-.16287557 2.7026999.141 4.022.71918048 2.8741836 2.56098362 5.3398872 5.113 6.845zm19.305-7.324c-.5900379 2.3511873-2.0972877 4.3680568-4.185 5.6-3.4056193 1.9808288-5.5157244 5.6093888-5.553 9.549v11.9c.0005771 1.4960656 1.1033179 2.7630444 2.585 2.97 4.13.628 6.292 2.315 6.415 2.82l-21 .03c.125-.535 2.287-2.222 6.416-2.85 1.4824762-.2060493 2.5862836-1.473273 2.587-2.97v-11.9c-.0372756-3.9396112-2.1473807-7.5681712-5.553-9.549-2.08809131-1.2317436-3.59572208-3.2486409-4.186-5.6-.24089755-1.0744096-.27483627-2.1848846-.1-3.272l.819-6c.253.17.5.35.75.538 1.36008734 1.1929993 3.11294932 1.8415084 4.922 1.821 1.8158876.0218415 3.575724-.6285251 4.941-1.826 2.1279968-1.8998303 5.3430032-1.8998303 7.471 0 .9402935.7940867 2.0521731 1.358927 3.248 1.65l.521 3.815c.1757988 1.0876375.1425379 2.1988246-.098 3.274zm-19.866-23.163h17.255l1.9 13.9c-.6306857-.27785-1.220469-.6405348-1.753-1.078-1.3663911-1.1971367-3.1275262-1.8461634-4.944-1.822-1.811586-.0209309-3.5670113.6283165-4.929 1.823-1.0223089.9338452-2.3614807 1.4439889-3.746 1.427-1.37860431.0153865-2.71155368-.4936293-3.729-1.424-.51985799-.410063-1.07464618-.7737872-1.658-1.087z" fill="#000" fill-rule="nonzero"/><path id="Shape" d="m29 58c0 1.1045695.8954305 2 2 2h28c1.1045695 0 2-.8954305 2-2v-14c0-.278-.121-6.815-10.656-7.969-.3013981-.0324891-.6062536.0016492-.893.1l-19.782 6.925c-.01 0-.016.012-.027.016-.0658583.0301141-.1282285.0673351-.186.111-.0503612.029304-.0981933.0627531-.143.1-.0423908.0469775-.0802271.0978723-.113.152-.0410874.0491435-.0769473.1024307-.107.159-.019006.0533336-.0333923.1082022-.043.164-.0230695.0700299-.0378372.1425261-.044.216 0 .01-.006.019-.006.03zm30 0h-28v-13h17.142c.4490235 1.7642024 2.0375517 2.9990647 3.858 2.9990647s3.4089765-1.2348623 3.858-2.9990647h3.142zm-9-14c0-.408.779-1 2-1s2 .592 2 1c0 1.1045695-.8954305 2-2 2s-2-.8954305-2-2zm.126-5.981c6.337.694 8.143 3.46 8.661 4.981h-3.024c-.7697547-1.3302844-2.229739-2.1062527-3.763-2-1.533261-.1062527-2.9932453.6697156-3.763 2h-12.35z" fill="#000" fill-rule="nonzero"/><path id="Shape" d="m36 50c-1.6568542 0-3 1.3431458-3 3s1.3431458 3 3 3 3-1.3431458 3-3-1.3431458-3-3-3zm0 4c-.5522847 0-1-.4477153-1-1s.4477153-1 1-1 1 .4477153 1 1-.4477153 1-1 1z" fill="#000" fill-rule="nonzero"/><path id="Shape" d="m47 48c-2.209139 0-4 1.790861-4 4s1.790861 4 4 4 4-1.790861 4-4-1.790861-4-4-4zm0 6c-1.1045695 0-2-.8954305-2-2s.8954305-2 2-2 2 .8954305 2 2-.8954305 2-2 2z" fill="#000" fill-rule="nonzero"/><circle id="Oval" cx="56" cy="50" fill="#000" fill-rule="nonzero" r="1"/><circle id="Oval" cx="54" cy="55" fill="#000" fill-rule="nonzero" r="1"/><circle id="Oval" cx="40" cy="48" fill="#000" fill-rule="nonzero" r="1"/><circle id="Oval" cx="47" cy="41" fill="#000" fill-rule="nonzero" r="1"/></g></g></svg>