<svg width="100" height="100" viewBox="0 0 100 100" fill="none" xmlns="http://www.w3.org/2000/svg">
<path d="M9.9655 85.4996C7.70109 79.5517 8.29313 72.731 11.8469 67.1791C12.4214 66.2819 12.1597 65.0894 11.2633 64.5149C10.3668 63.9412 9.17433 64.2021 8.6006 65.0993C3.2295 73.4901 3.5446 84.3193 9.30403 92.3546C9.38261 89.8765 9.61683 87.5938 9.9655 85.4996Z" fill="#9EA7AF"/>
<path d="M34.8381 91.7579H34.4147C33.8776 91.7579 33.4381 91.3185 33.4381 90.7814V69.1192C31.6833 70.0081 29.6524 70.5185 27.4872 70.5185C23.9128 70.5185 20.7046 69.1337 18.5028 66.9372C17.6338 67.8611 16.6908 68.9972 15.757 70.3643C12.9066 74.5369 9.4696 81.8916 9.28116 93.2312C9.27734 93.4898 9.37653 93.7385 9.5581 93.9232C9.73892 94.107 9.98688 94.2108 10.2448 94.2108H18.0161V94.9989C18.0161 95.536 18.4555 95.9755 18.9926 95.9755H24.2363C24.7734 95.9755 25.2129 95.536 25.2129 94.9989V94.2108H28.4271V94.9989C28.4271 95.536 28.8666 95.9755 29.4037 95.9755H34.8381C35.3752 95.9755 35.8147 95.536 35.8147 94.9989V92.7345C35.8147 92.1974 35.3752 91.7579 34.8381 91.7579Z" fill="#424F59"/>
<path d="M91.6076 83.3657C90.5952 58.1856 72.6165 48.7679 70.0874 47.5647L67.7734 37.9425C65.4632 41.687 61.3479 44.1811 56.6528 44.1811C54.7637 44.1811 52.9693 43.7744 51.3481 43.0481V84.636H48.6129C44.1215 84.636 40.4685 88.3194 40.4685 92.8475C40.4685 93.599 41.0758 94.2108 41.8212 94.2108H59.1369C59.6176 94.2108 60.0067 93.8187 60.0067 93.3342V85.5942H69.9981C67.4232 86.9751 65.6638 89.7072 65.6638 92.8475C65.6638 93.6005 66.2696 94.2108 67.0165 94.2108H90.3007C91.0484 94.2108 91.6541 93.6005 91.6541 92.8475L91.6076 83.3657Z" fill="#D19546"/>
<path d="M97.8698 63.8946C97.7698 63.5048 97.4204 63.2385 97.029 63.2385C96.9962 63.2385 96.9626 63.2408 96.9283 63.2446C96.4972 63.295 96.1692 63.6581 96.1592 64.0945C96.0479 68.927 93.1311 72.5136 90.5211 74.7665C91.1452 77.6108 91.5412 80.7152 91.632 84.1003C95.4123 81.7489 97.7172 77.8999 98.3535 72.7997C98.9379 68.1114 97.914 64.0648 97.8698 63.8946Z" fill="#B2762F"/>
<path d="M56.6528 17.7888C57.003 17.7888 57.3493 17.8063 57.6934 17.8338C57.6644 16.7336 57.8025 15.6304 58.1016 14.5638C57.7606 14.0839 57.3783 13.6239 56.9511 13.1928C55.3252 11.554 53.3111 10.5477 51.2077 10.1685C48.6083 13.0257 47.7927 16.9396 48.7571 20.4613C50.9521 18.7844 53.6865 17.7888 56.6528 17.7888Z" fill="#D19546"/>
<path d="M43.5646 30.9853C43.5646 29.8722 43.7034 28.7918 43.9605 27.7596H41.2376C40.5105 27.7596 39.8063 27.8565 39.1365 28.0365C39.495 28.4951 39.7102 29.0726 39.7102 29.702C39.7102 31.1898 38.5139 32.396 37.0384 32.396H34.2384C34.1285 32.396 34.021 32.3876 33.9149 32.3746C33.3892 33.4603 33.0932 34.6802 33.0932 35.9703C33.0932 40.5052 36.7393 44.1811 41.2376 44.1811H53.7445C54.1839 44.1811 54.615 44.1445 55.0361 44.0773C48.571 43.274 43.5646 37.7205 43.5646 30.9853Z" fill="#B2762F"/>
<path d="M68.5012 25.377C70.2835 21.3631 69.5426 16.4879 66.275 13.1928C64.6499 11.5548 62.635 10.5485 60.5323 10.1685C58.567 12.3284 57.6217 15.0925 57.6934 17.8338C57.3493 17.8063 57.003 17.7888 56.6528 17.7888C49.4239 17.7888 43.5646 23.697 43.5646 30.9853C43.5646 38.2737 49.4239 44.1819 56.6528 44.1819C63.8809 44.1819 69.741 38.2737 69.741 30.9853C69.741 28.9796 69.2954 27.0791 68.5012 25.377Z" fill="#D19546"/>
<path d="M39.7102 29.7021C39.7102 31.1898 38.5139 32.3968 37.0384 32.3968H34.2384C32.7629 32.3968 31.5658 31.1898 31.5658 29.7021C31.5658 28.2143 32.7629 27.0081 34.2384 27.0081H37.0384C38.5139 27.0081 39.7102 28.2143 39.7102 29.7021Z" fill="#775436"/>
<path d="M21.9642 50.3822C19.783 48.291 16.6519 47.5235 13.7428 48.3849C13.6444 48.4139 13.5559 48.468 13.4849 48.5382C13.4147 48.6092 13.3613 48.6977 13.3316 48.7961C12.4534 51.7639 13.2652 54.9652 15.4503 57.1518C15.5555 57.2563 15.6654 57.3555 15.7745 57.4547C16.5741 54.3724 18.8774 51.8021 21.9642 50.3822Z" fill="#424F59"/>
<path d="M41.6435 48.7961C41.6137 48.6977 41.5611 48.6092 41.4901 48.5382C41.4192 48.468 41.3307 48.4138 41.2323 48.3848C38.3224 47.5235 35.1913 48.291 33.0108 50.383C36.0977 51.8021 38.401 54.3724 39.2005 57.4547C39.3096 57.3563 39.4195 57.2571 39.524 57.1518C41.7099 54.9652 42.5216 51.7639 41.6435 48.7961Z" fill="#424F59"/>
<path d="M39.5096 59.8541C39.5096 53.9642 34.127 49.1898 27.4872 49.1898C20.8473 49.1898 15.4648 53.9642 15.4648 59.8541C15.4648 65.744 20.8473 70.5193 27.4872 70.5193C34.127 70.5193 39.5096 65.744 39.5096 59.8541Z" fill="#9EA7AF"/>
<path d="M52.4169 24.5163C51.6082 24.5163 50.9521 25.1724 50.9521 25.9811V29.5738C50.9521 30.3825 51.6082 31.0387 52.4169 31.0387C53.2264 31.0387 53.8818 30.3825 53.8818 29.5738V25.9811C53.8818 25.1724 53.2264 24.5163 52.4169 24.5163Z" fill="black"/>
<path d="M81.0944 66.0104C74.2439 66.0104 68.6707 71.6241 68.6707 78.5241C68.6707 80.4414 69.0994 82.3045 69.9226 84.0012C69.8303 84.0424 69.7388 84.0859 69.6487 84.1302H61.4723V67.2608C61.4723 66.4513 60.8162 65.796 60.0075 65.796C59.198 65.796 58.5426 66.4513 58.5426 67.2608V92.7468H41.9342C41.9876 89.0725 44.9638 86.1008 48.6137 86.1008H51.3481C52.1568 86.1008 52.813 85.4447 52.813 84.636V45.646H56.6528C60.7262 45.646 64.4119 43.9492 67.0563 41.224L69.8051 52.6559C69.9661 53.328 70.5666 53.7789 71.228 53.7789C71.3417 53.7789 71.4561 53.7659 71.5714 53.7377C72.3579 53.5493 72.8424 52.7581 72.6532 51.9715L72.2992 50.4983C73.3177 51.1506 74.527 52.0013 75.824 53.0717C76.0971 53.2967 76.4275 53.4066 76.7555 53.4066C77.1774 53.4066 77.597 53.225 77.8862 52.8741C78.4012 52.25 78.3127 51.3268 77.6886 50.8118C74.9779 48.5757 72.6318 47.2215 71.3516 46.5592L69.3336 38.1669C70.5238 36.0429 71.2067 33.5938 71.2067 30.9853C71.2067 28.9956 70.8084 27.0989 70.0928 25.3686C71.8391 20.8314 70.8 15.6754 67.3157 12.1613C65.5312 10.3631 63.2759 9.17519 60.7933 8.72734C60.2966 8.63808 59.7885 8.80974 59.4498 9.18282C58.7173 9.98772 58.1093 10.872 57.6248 11.8073C55.9013 10.2067 53.7842 9.14467 51.4687 8.72734C50.972 8.63808 50.4646 8.80974 50.1251 9.18282C47.3854 12.1934 46.3951 16.1942 47.1207 19.9227C45.1904 21.6126 43.7042 23.8046 42.8658 26.2948H41.2384C40.6776 26.2948 40.1299 26.3459 39.5958 26.439C38.8916 25.8797 38.0043 25.5425 37.0384 25.5425H34.2392C31.958 25.5425 30.1018 27.4087 30.1018 29.7021C30.1018 31.1776 30.8731 32.4731 32.029 33.2116C31.7703 34.0867 31.6292 35.0121 31.6292 35.9704C31.6292 41.3056 35.9398 45.646 41.2376 45.646H49.8833V83.1712H48.6137C43.3487 83.1712 39.061 87.4574 39.0068 92.746H37.2795V92.7338C37.2795 91.4094 36.2198 90.3283 34.9037 90.2932V81.2386C34.9037 80.4299 34.2476 79.7738 33.4389 79.7738C32.6294 79.7738 31.974 80.4299 31.974 81.2386V90.7807C31.974 92.1052 33.0338 93.1863 34.3498 93.2214V94.5107H29.892V81.9497C29.892 81.141 29.2358 80.4848 28.4271 80.4848C27.6184 80.4848 26.9623 81.141 26.9623 81.9497V92.746H26.6777V92.7338C26.6777 91.4742 25.7187 90.4343 24.4926 90.3062V81.9497C24.4926 81.1402 23.8365 80.4848 23.0278 80.4848C22.2191 80.4848 21.563 81.1402 21.563 81.9497V90.7807C21.563 92.0403 22.522 93.0802 23.7488 93.2084V94.51H19.4809V81.9497C19.4809 81.1402 18.8255 80.4848 18.0161 80.4848C17.2073 80.4848 16.5512 81.1402 16.5512 81.9497V92.746H10.7567C11.0306 82.0588 14.2723 75.1351 16.967 71.19C17.5278 70.369 18.0893 69.6389 18.6333 68.9919C21.0045 70.852 24.1013 71.9834 27.4872 71.9834C29.0596 71.9834 30.5695 71.7377 31.9733 71.2907V74.2074C31.9733 75.0169 32.6294 75.6722 33.4381 75.6722C34.2476 75.6722 34.903 75.0169 34.903 74.2074V69.9776C38.5574 67.8056 40.9744 64.0794 40.9744 59.8542C40.9744 59.2004 40.9149 58.5595 40.8035 57.9339C43.1847 55.3773 44.0453 51.7503 43.0473 48.3773C42.9489 48.047 42.7681 47.7433 42.524 47.5007C42.2806 47.2573 41.9777 47.0773 41.6481 46.9796C40.7326 46.7088 39.7858 46.5714 38.8344 46.5714C36.5944 46.5714 34.4688 47.3145 32.7354 48.6802C31.1211 48.0645 29.3472 47.7242 27.4872 47.7242C25.6271 47.7242 23.8533 48.0645 22.2397 48.6802C20.5055 47.3145 18.3807 46.5714 16.14 46.5714C15.1886 46.5714 14.2418 46.7088 13.3286 46.9788C13.0005 47.0757 12.6976 47.255 12.4481 47.503C12.2055 47.7456 12.0262 48.0485 11.927 48.3796C10.9299 51.7503 11.7897 55.3773 14.1708 57.9339C14.0602 58.5595 14.0007 59.2004 14.0007 59.8534C14.0007 62.494 14.946 64.9369 16.5443 66.9305C15.8913 67.6934 15.2168 68.5586 14.5477 69.5374C13.0478 71.7332 11.393 74.7758 10.0983 78.7606C9.98917 75.0283 10.9749 71.2579 13.0806 67.9681C14.0892 66.3926 13.6284 64.2899 12.0537 63.2813C11.5059 62.9304 10.8742 62.745 10.2257 62.745C9.06219 62.745 7.99332 63.3294 7.36694 64.309C1.77383 73.0462 2.00043 84.2751 7.79572 92.7453H1.46484C0.656128 92.7453 0 93.4014 0 94.2101C0 95.0196 0.656128 95.675 1.46484 95.675H16.6489C16.9434 96.6927 17.8818 97.4397 18.9926 97.4397H24.2363C25.3479 97.4397 26.2863 96.6927 26.58 95.675H27.0599C27.3544 96.6927 28.2928 97.4397 29.4037 97.4397H34.8381C35.9489 97.4397 36.8874 96.6927 37.1819 95.675H77.3422C78.1509 95.675 78.8071 95.0196 78.8071 94.2101C78.8071 93.4014 78.1509 92.7453 77.3422 92.7453H67.131C67.1776 89.6302 69.3794 86.9088 72.4022 86.2519C72.879 86.1481 73.2735 85.8132 73.4528 85.3593C73.6328 84.9053 73.5741 84.3911 73.2971 83.989C72.187 82.3785 71.5996 80.4887 71.5996 78.5233C71.5996 73.2384 75.8591 68.9393 81.0944 68.9393C81.9031 68.9393 82.5592 68.2832 82.5592 67.4744C82.5592 66.6657 81.9031 66.0104 81.0944 66.0104ZM51.7586 11.7936C53.3264 12.2231 54.7493 13.0532 55.9113 14.2243C56.1234 14.4387 56.3225 14.6615 56.5109 14.8904C56.4072 15.3672 56.3316 15.8486 56.2836 16.3331C53.9581 16.3918 51.7677 17.006 49.8337 18.0444C49.7185 15.8555 50.3555 13.633 51.7586 11.7936ZM34.2392 30.9319C33.5732 30.9319 33.0315 30.3803 33.0315 29.7021C33.0315 29.0246 33.5732 28.473 34.2392 28.473H37.0384C37.7045 28.473 38.2462 29.0246 38.2462 29.7021C38.2462 30.3803 37.7045 30.9319 37.0384 30.9319H34.2392ZM41.2376 42.7163C37.5542 42.7163 34.5581 39.6905 34.5581 35.9704C34.5581 35.2334 34.6802 34.5254 34.8976 33.8616H37.0384C39.3196 33.8616 41.1751 31.9955 41.1751 29.7021C41.1751 29.5411 41.1644 29.3832 41.1461 29.2275C41.1766 29.2268 41.2071 29.2245 41.2376 29.2245H42.2058C42.1364 29.802 42.0998 30.3895 42.0998 30.9853C42.0998 35.7774 44.3947 40.0399 47.9347 42.7171H41.2376V42.7163ZM45.0294 30.9853C45.0294 24.6217 50.0763 19.4291 56.3416 19.2612C56.5788 20.9817 57.1754 22.6678 58.1459 24.1998C58.5793 24.8833 59.4841 25.0863 60.1677 24.6529C60.8505 24.2204 61.0535 23.3155 60.6209 22.6319C58.4869 19.2643 58.7044 14.9216 61.084 11.7936C62.6518 12.2231 64.0739 13.054 65.2351 14.2243C68.1549 17.1677 68.8286 21.621 66.9136 25.306C66.5398 26.0232 66.8198 26.9082 67.5377 27.2813C67.5911 27.3087 67.6453 27.3331 67.7002 27.3537C68.0717 28.4982 68.277 29.7173 68.277 30.9853C68.277 37.4543 63.0623 42.7163 56.6528 42.7163C50.2441 42.7163 45.0294 37.4543 45.0294 30.9853ZM38.8344 49.5019C39.3471 49.5019 39.8575 49.5583 40.358 49.6705C40.7364 51.3612 40.4663 53.1106 39.637 54.5914C38.7169 52.8809 37.3619 51.3947 35.7033 50.2457C36.6631 49.7598 37.7289 49.5019 38.8344 49.5019ZM27.4872 50.6547C33.3084 50.6547 38.0447 54.7814 38.0447 59.8542C38.0447 64.927 33.3084 69.0545 27.4872 69.0545C21.666 69.0545 16.9296 64.927 16.9296 59.8542C16.9304 54.7814 21.666 50.6547 27.4872 50.6547ZM15.3374 54.5914C14.5081 53.1098 14.2387 51.3604 14.6172 49.6705C15.1176 49.5583 15.6281 49.5019 16.14 49.5019C17.2462 49.5019 18.3121 49.7598 19.2711 50.245C17.6132 51.3947 16.2575 52.8809 15.3374 54.5914ZM8.20465 87.4909C5.13916 80.5909 5.63583 72.448 9.83429 65.8891C9.91974 65.7548 10.0662 65.6754 10.2257 65.6754C10.3142 65.6754 10.3973 65.6998 10.4729 65.7487C10.6888 65.8868 10.7513 66.1736 10.6133 66.3888C6.87866 72.2245 6.19583 79.3664 8.46024 85.6522C8.36563 86.2504 8.28018 86.8638 8.20465 87.4909ZM64.2014 92.7468H61.4716V87.0599H66.1278C64.9315 88.6666 64.2235 90.6449 64.2014 92.7468Z" fill="black"/>
<path d="M23.8251 59.8526C24.6338 59.8526 25.2899 59.1972 25.2899 58.3878V56.7207C25.2899 55.9113 24.6338 55.2559 23.8251 55.2559C23.0163 55.2559 22.3602 55.9113 22.3602 56.7207V58.3878C22.3602 59.1972 23.0163 59.8526 23.8251 59.8526Z" fill="black"/>
<path d="M31.15 59.8526C31.9587 59.8526 32.6149 59.1972 32.6149 58.3878V56.7207C32.6149 55.9113 31.9587 55.2559 31.15 55.2559C30.3405 55.2559 29.6852 55.9113 29.6852 56.7207V58.3878C29.6852 59.1972 30.3405 59.8526 31.15 59.8526Z" fill="black"/>
<path d="M25.3349 66.3017C26.1161 66.3017 26.8608 66.0698 27.4871 65.6555C28.1135 66.0698 28.8589 66.3017 29.6402 66.3017C31.7909 66.3017 33.5403 64.5523 33.5403 62.4016C33.5403 61.5921 32.8842 60.9367 32.0755 60.9367C31.266 60.9367 30.6106 61.5921 30.6106 62.4016C30.6106 62.9364 30.175 63.372 29.6402 63.372C29.2801 63.372 28.9512 63.1737 28.7819 62.854C28.5278 62.3749 28.0296 62.075 27.4871 62.075C26.9447 62.075 26.4473 62.3749 26.1932 62.854C26.0238 63.1737 25.695 63.372 25.3349 63.372C24.7993 63.372 24.3644 62.9364 24.3644 62.4016C24.3644 61.5921 23.7083 60.9367 22.8996 60.9367C22.0901 60.9367 21.4347 61.5921 21.4347 62.4016C21.4347 64.5523 23.1842 66.3017 25.3349 66.3017Z" fill="black"/>
<path d="M98.5327 93.7467H93.1189V85.8801C96.8627 83.2746 99.1515 79.2341 99.8069 73.9813C100.414 69.1122 99.4056 64.9839 99.2888 64.5284C99.0218 63.4954 98.0925 62.7737 97.029 62.7737C96.9474 62.7737 96.8634 62.7783 96.7582 62.7897C95.6084 62.924 94.7211 63.9005 94.6952 65.061C94.6204 68.2874 93.0983 70.9234 91.3337 72.9093C89.6636 66.9164 86.8262 61.5522 82.8353 56.8746C82.3104 56.2597 81.3857 56.1865 80.77 56.7114C80.1551 57.2363 80.0818 58.1609 80.6067 58.7766C86.6805 65.8949 89.8948 74.7556 90.1702 85.1301L90.1892 88.0598V93.7467H84.3734C83.5646 93.7467 82.9085 94.4029 82.9085 95.2116C82.9085 96.0203 83.5646 96.6764 84.3734 96.6764H98.5327C99.3422 96.6764 99.9976 96.0203 99.9976 95.2116C99.9976 94.4021 99.3422 93.7467 98.5327 93.7467ZM92.1347 76.2632C94.0596 74.4634 96.0227 72.0045 96.9977 68.9054C97.0992 70.2619 97.1152 71.8931 96.9001 73.6189C96.4537 77.197 95.1079 80.0909 92.948 82.2042C92.7886 80.1656 92.5177 78.1851 92.1347 76.2632Z" fill="black"/>
</svg>
